<svg preserveAspectRatio="none" width="100%" height="100%" overflow="visible" style="display: block;" viewBox="0 0 352.75 91.3753" fill="none" xmlns="http://www.w3.org/2000/svg">
<path id="r1" d="M0 84.5753C0 88.3308 3.04446 91.3753 6.8 91.3753C10.5555 91.3753 13.6 88.3308 13.6 84.5753C13.6 80.8198 10.5555 77.7753 6.8 77.7753C3.04446 77.7753 0 80.8198 0 84.5753ZM351.774 2.51461C352.459 2.3492 352.88 1.66024 352.714 0.975779C352.549 0.291321 351.86 -0.129445 351.175 0.0359731L351.475 1.27529L351.774 2.51461ZM6.8 84.5753L7.09952 85.8146L351.774 2.51461L351.475 1.27529L351.175 0.0359731L6.50049 83.336L6.8 84.5753Z" fill="var(--stroke-0, white)"/>
</svg>
