<svg preserveAspectRatio="none" width="100%" height="100%" overflow="visible" style="display: block;" viewBox="0 0 125.001 144.964" fill="none" xmlns="http://www.w3.org/2000/svg">
<path id="r5" d="M0 6.8C0 10.5555 3.04446 13.6 6.8 13.6C10.5555 13.6 13.6 10.5555 13.6 6.8C13.6 3.04446 10.5555 0 6.8 0C3.04446 0 0 3.04446 0 6.8ZM122.757 144.518C123.214 145.053 124.019 145.116 124.554 144.659C125.09 144.202 125.153 143.397 124.696 142.861L123.726 143.689L122.757 144.518ZM6.8 6.8L5.83052 7.62809L122.757 144.518L123.726 143.689L124.696 142.861L7.76948 5.97191L6.8 6.8Z" fill="var(--stroke-0, white)"/>
</svg>
