<svg preserveAspectRatio="none" width="100%" height="100%" overflow="visible" style="display: block;" viewBox="0 0 1184 595.001" fill="none" xmlns="http://www.w3.org/2000/svg">
<g id="guide">
<path id="r1" d="M769 99.5003C769 103.919 772.582 107.5 777 107.5C781.419 107.5 785 103.919 785 99.5003C785 95.0821 781.419 91.5003 777 91.5003C772.582 91.5003 769 95.0821 769 99.5003ZM1182.85 2.95837C1183.66 2.76376 1184.15 1.95322 1183.96 1.14797C1183.76 0.34273 1182.95 -0.152288 1182.15 0.0423213L1182.5 1.50035L1182.85 2.95837ZM777 99.5003L777.353 100.958L1182.85 2.95837L1182.5 1.50035L1182.15 0.0423213L776.648 98.0423L777 99.5003Z" fill="var(--stroke-0, white)"/>
<path id="r2" d="M987.239 71.0601C986.168 75.3464 988.774 79.6899 993.06 80.7615C997.346 81.8331 1001.69 79.227 1002.76 74.9406C1003.83 70.6543 1001.23 66.3108 996.941 65.2392C992.654 64.1676 988.311 66.7737 987.239 71.0601ZM1180.64 120.956C1181.44 121.156 1182.25 120.668 1182.46 119.864C1182.66 119.06 1182.17 118.246 1181.36 118.045L1181 119.5L1180.64 120.956ZM995 73.0003L994.637 74.4556L1180.64 120.956L1181 119.5L1181.36 118.045L995.364 71.5451L995 73.0003Z" fill="var(--stroke-0, white)"/>
<path id="r3" d="M980.095 120.961C977.864 124.774 979.147 129.674 982.961 131.905C986.774 134.137 991.674 132.854 993.905 129.04C996.137 125.227 994.854 120.326 991.04 118.095C987.227 115.864 982.326 117.147 980.095 120.961ZM1180.24 239.795C1180.96 240.213 1181.88 239.973 1182.3 239.258C1182.71 238.543 1182.47 237.624 1181.76 237.206L1181 238.5L1180.24 239.795ZM987 125L986.243 126.295L1180.24 239.795L1181 238.5L1181.76 237.206L987.758 123.706L987 125Z" fill="var(--stroke-0, white)"/>
<path id="r4" d="M973.036 202.787C970.433 206.358 971.217 211.362 974.787 213.965C978.358 216.568 983.362 215.783 985.965 212.213C988.568 208.643 987.784 203.639 984.213 201.036C980.643 198.433 975.639 199.217 973.036 202.787ZM1181.62 356.712C1182.29 357.2 1183.22 357.053 1183.71 356.384C1184.2 355.715 1184.05 354.776 1183.38 354.288L1182.5 355.5L1181.62 356.712ZM979.5 207.5L978.617 208.712L1181.62 356.712L1182.5 355.5L1183.38 354.288L980.384 206.288L979.5 207.5Z" fill="var(--stroke-0, white)"/>
<path id="r5" d="M965.16 454.968C968.167 458.206 973.219 458.382 976.444 455.363C979.669 452.343 979.847 447.27 976.84 444.033C973.834 440.795 968.782 440.618 965.557 443.638C962.332 446.658 962.154 451.73 965.16 454.968ZM1180.83 474.994C1181.65 475.088 1182.39 474.495 1182.49 473.67C1182.58 472.846 1181.99 472.101 1181.17 472.007L1181 473.5L1180.83 474.994ZM971 449.5L970.831 450.994L1180.83 474.994L1181 473.5L1181.17 472.007L971.17 448.007L971 449.5Z" fill="var(--stroke-0, white)"/>
<path id="r6" d="M997.573 566.425C996.979 570.804 1000.05 574.834 1004.43 575.428C1008.8 576.021 1012.83 572.953 1013.43 568.575C1014.02 564.197 1010.95 560.167 1006.58 559.573C1002.2 558.979 998.167 562.047 997.573 566.425ZM1182.3 592.987C1183.12 593.098 1183.88 592.523 1183.99 591.702C1184.1 590.881 1183.52 590.125 1182.7 590.014L1182.5 591.5L1182.3 592.987ZM1005.5 567.5L1005.3 568.987L1182.3 592.987L1182.5 591.5L1182.7 590.014L1005.7 566.014L1005.5 567.5Z" fill="var(--stroke-0, white)"/>
<path id="l6" d="M537.323 478.823C536.396 474.503 532.143 471.752 527.823 472.678C523.503 473.604 520.752 477.858 521.678 482.178C522.605 486.498 526.858 489.249 531.178 488.323C535.498 487.396 538.249 483.143 537.323 478.823ZM2.1859 592.034C1.37588 592.207 0.860039 593.005 1.03372 593.815C1.20741 594.625 2.00485 595.141 2.81487 594.967L2.50039 593.5L2.1859 592.034ZM529.5 480.5L529.186 479.034L2.1859 592.034L2.50039 593.5L2.81487 594.967L529.815 481.967L529.5 480.5Z" fill="var(--stroke-0, white)"/>
<path id="l5" d="M437.135 347.11C435.815 342.894 431.327 340.546 427.11 341.866C422.894 343.186 420.546 347.674 421.866 351.891C423.186 356.107 427.674 358.455 431.891 357.135C436.107 355.815 438.455 351.327 437.135 347.11ZM1.05222 482.069C0.261629 482.316 -0.17861 483.158 0.0689098 483.949C0.31643 484.739 1.15798 485.179 1.94857 484.932L1.50039 483.5L1.05222 482.069ZM429.5 349.5L429.052 348.069L1.05222 482.069L1.50039 483.5L1.94857 484.932L429.949 350.932L429.5 349.5Z" fill="var(--stroke-0, white)"/>
<path id="l4" d="M506.943 176.565C505.322 172.455 500.676 170.437 496.565 172.058C492.455 173.679 490.437 178.325 492.058 182.435C493.679 186.545 498.325 188.563 502.435 186.943C506.546 185.322 508.564 180.676 506.943 176.565ZM1.95012 374.105C1.17945 374.409 0.80109 375.28 1.10501 376.051C1.40894 376.821 2.28006 377.2 3.05072 376.896L2.50042 375.5L1.95012 374.105ZM499.5 179.5L498.95 178.105L1.95012 374.105L2.50042 375.5L3.05072 376.896L500.051 180.896L499.5 179.5Z" fill="var(--stroke-0, white)"/>
<path id="l3" d="M265.383 156.419C263.682 152.342 258.997 150.416 254.919 152.117C250.842 153.819 248.916 158.504 250.618 162.581C252.319 166.659 257.004 168.585 261.081 166.883C265.159 165.182 267.085 160.497 265.383 156.419ZM3.42276 264.116C2.65823 264.435 2.29711 265.314 2.61616 266.078C2.93521 266.843 3.81362 267.204 4.57815 266.885L4.00045 265.5L3.42276 264.116ZM258 159.5L257.423 158.116L3.42276 264.116L4.00045 265.5L4.57815 266.885L258.578 160.885L258 159.5Z" fill="var(--stroke-0, white)"/>
<path id="l2" d="M193.24 109.475C192.121 105.201 187.749 102.642 183.475 103.761C179.201 104.88 176.643 109.251 177.761 113.526C178.88 117.8 183.252 120.358 187.526 119.24C191.8 118.121 194.358 113.749 193.24 109.475ZM3.62075 157.549C2.81932 157.759 2.33965 158.579 2.54939 159.38C2.75913 160.182 3.57887 160.661 4.38029 160.451L4.00052 159L3.62075 157.549ZM185.501 111.5L185.121 110.049L3.62075 157.549L4.00052 159L4.38029 160.451L185.88 112.951L185.501 111.5Z" fill="var(--stroke-0, white)"/>
<path id="l1" d="M420.37 77.9399C421.165 73.5937 418.286 69.426 413.94 68.6309C409.594 67.8359 405.426 70.7147 404.631 75.0608C403.836 79.407 406.715 83.5747 411.061 84.3698C415.407 85.1648 419.575 82.286 420.37 77.9399ZM2.77035 0.0248249C1.95547 -0.124238 1.17399 0.415524 1.02492 1.23043C0.875856 2.04533 1.41565 2.82679 2.23053 2.97586L2.50044 1.50034L2.77035 0.0248249ZM412.5 76.5003L412.77 75.0248L2.77035 0.0248249L2.50044 1.50034L2.23053 2.97586L412.231 77.9759L412.5 76.5003Z" fill="var(--stroke-0, white)"/>
</g>
</svg>
