<svg preserveAspectRatio="none" width="100%" height="100%" overflow="visible" style="display: block;" viewBox="0 0 24.7953 23.9402" fill="none" xmlns="http://www.w3.org/2000/svg">
<g id="Group 1272629142">
<path id="Vector" d="M15.5456 14.6764C15.682 15.2821 16.545 15.2821 16.6814 14.6764C17.1632 12.538 18.8332 10.8678 20.9717 10.3861C21.5774 10.2497 21.5774 9.38666 20.9717 9.25023C18.8332 8.7685 17.1632 7.0985 16.6814 4.95991C16.545 4.35425 15.682 4.35425 15.5456 4.95991C15.0638 7.0985 13.3938 8.7685 11.2552 9.25023C10.6496 9.38666 10.6496 10.2497 11.2552 10.3861C13.3938 10.8678 15.0638 12.5378 15.5456 14.6764Z" fill="var(--fill-0, #403050)"/>
<path id="Vector_2" d="M10.0717 6.10245C10.1536 6.46585 10.6714 6.46585 10.7533 6.10245C11.0423 4.81939 12.0444 3.8173 13.3275 3.52826C13.6908 3.4464 13.6908 2.9286 13.3275 2.84674C12.0444 2.5577 11.0423 1.5557 10.7533 0.272545C10.6714 -0.0908484 10.1536 -0.0908484 10.0717 0.272545C9.7827 1.5557 8.78067 2.5577 7.49754 2.84674C7.13415 2.9286 7.13415 3.4464 7.49754 3.52826C8.78067 3.8173 9.7827 4.8193 10.0717 6.10245Z" fill="var(--fill-0, #403050)"/>
<path id="Rectangle 1726" d="M7.33599 7.43857L6.78185 8.03526C5.83848 9.05106 5.86986 10.6266 6.85294 11.6044L14.3433 19.0548C15.3546 20.0607 16.9942 20.0607 18.0055 19.0548L23.7299 13.3609" stroke="var(--stroke-0, #403050)" stroke-width="2.125" stroke-linecap="round"/>
<path id="Rectangle 1727" d="M7.35877 12.1059L1.0625 18.3686L1.0625 22.8777L9.62541 22.8777L13.9069 18.6191" stroke="var(--stroke-0, #403050)" stroke-width="2.125" stroke-linejoin="round"/>
</g>
</svg>
