<svg preserveAspectRatio="none" width="100%" height="100%" overflow="visible" style="display: block;" viewBox="0 0 24.7917 24.7917" fill="none" xmlns="http://www.w3.org/2000/svg">
<g id="Group 1272628218">
<path id="Vector" d="M1.0625 6.72917L1.0625 3.89583C1.0625 3.14439 1.36101 2.42372 1.89236 1.89236C2.42372 1.36101 3.14439 1.0625 3.89583 1.0625L6.72917 1.0625M1.0625 18.0625L1.0625 20.8958C1.0625 21.6473 1.36101 22.3679 1.89236 22.8993C2.42372 23.4307 3.14439 23.7292 3.89583 23.7292H6.72917M18.0625 1.0625L20.8958 1.0625C21.6473 1.0625 22.3679 1.36101 22.8993 1.89236C23.4307 2.42372 23.7292 3.14439 23.7292 3.89583V6.72917" stroke="var(--stroke-0, #403050)" stroke-width="2.125" stroke-linecap="round" stroke-linejoin="round"/>
<path id="Vector_2" d="M16.7595 23.1922C16.9212 23.91 17.9441 23.91 18.1058 23.1922C18.6767 20.6578 20.656 18.6783 23.1906 18.1074C23.9084 17.9457 23.9084 16.9229 23.1906 16.7612C20.656 16.1902 18.6767 14.211 18.1058 11.6763C17.9441 10.9585 16.9212 10.9585 16.7595 11.6763C16.1886 14.211 14.2093 16.1902 11.6747 16.7612C10.9569 16.9229 10.9569 17.9457 11.6747 18.1074C14.2093 18.6783 16.1886 20.6576 16.7595 23.1922Z" fill="var(--fill-0, #403050)"/>
<path id="Vector_3" d="M10.1727 13.3866C10.2536 13.7455 10.765 13.7455 10.8459 13.3866C11.1313 12.1194 12.121 11.1296 13.3883 10.8442C13.7472 10.7633 13.7472 10.2519 13.3883 10.1711C12.121 9.8856 11.1313 8.89597 10.8459 7.62865C10.765 7.26975 10.2536 7.26975 10.1727 7.62865C9.88726 8.89597 8.8976 9.8856 7.63031 10.1711C7.27141 10.2519 7.27141 10.7633 7.63031 10.8442C8.8976 11.1296 9.88726 12.1193 10.1727 13.3866Z" fill="var(--fill-0, #403050)"/>
</g>
</svg>
