<svg preserveAspectRatio="none" width="100%" height="100%" overflow="visible" style="display: block;" viewBox="0 0 29.325 25.8835" fill="none" xmlns="http://www.w3.org/2000/svg">
<g id="Group 1272629128">
<g id="Vector">
<path d="M24.8625 7.8625C22.1425 12.3958 18.7425 14.6625 14.6625 14.6625C10.5825 14.6625 7.1825 12.3958 4.4625 7.8625C7.1825 3.32917 10.5825 1.0625 14.6625 1.0625C18.7425 1.0625 22.1425 3.32917 24.8625 7.8625Z" stroke="var(--stroke-0, #403050)" stroke-width="2.125" stroke-linecap="round" stroke-linejoin="round"/>
<path d="M18.4875 7.8625C18.4875 9.97499 16.775 11.6875 14.6625 11.6875C12.55 11.6875 10.8375 9.97499 10.8375 7.8625C10.8375 5.75001 12.55 4.0375 14.6625 4.0375C16.775 4.0375 18.4875 5.75001 18.4875 7.8625Z" stroke="var(--stroke-0, #403050)" stroke-width="2.125" stroke-linecap="round" stroke-linejoin="round"/>
</g>
<path id="Rectangle 1654" d="M1.0625 20.996C1.0625 23.1085 2.77501 24.821 4.8875 24.821L24.4375 24.821C26.55 24.821 28.2625 23.1085 28.2625 20.996" stroke="var(--stroke-0, #403050)" stroke-width="2.125" stroke-linecap="round" stroke-linejoin="round"/>
</g>
</svg>
