<svg preserveAspectRatio="none" width="100%" height="100%" overflow="visible" style="display: block;" viewBox="0 0 24.7917 24.7917" fill="none" xmlns="http://www.w3.org/2000/svg">
<g id="Frame 1272629831">
<path id="Vector" d="M1.0625 12.3958C1.0625 13.8841 1.35565 15.3579 1.9252 16.7329C2.49475 18.1079 3.32956 19.3573 4.38196 20.4097C5.43435 21.4621 6.68373 22.2969 8.05875 22.8665C9.43378 23.436 10.9075 23.7292 12.3958 23.7292C13.8841 23.7292 15.3579 23.436 16.7329 22.8665C18.1079 22.2969 19.3573 21.4621 20.4097 20.4097C21.4621 19.3573 22.2969 18.1079 22.8665 16.7329C23.436 15.3579 23.7292 13.8841 23.7292 12.3958M1.0625 12.3958C1.0625 9.39005 2.25654 6.50737 4.38196 4.38196C6.50737 2.25654 9.39005 1.0625 12.3958 1.0625C15.4016 1.0625 18.2843 2.25654 20.4097 4.38196C22.5351 6.50737 23.7292 9.39005 23.7292 12.3958M1.0625 12.3958L23.7292 12.3958M11.7664 1.0625C9.64498 4.46201 8.52029 8.3887 8.52029 12.3958C8.52029 16.403 9.64498 20.3297 11.7664 23.7292M13.0255 1.0625C15.1469 4.46201 16.2716 8.3887 16.2716 12.3958C16.2716 16.403 15.1469 20.3297 13.0255 23.7292" stroke="var(--stroke-0, #403050)" stroke-width="2.125" stroke-linejoin="round"/>
</g>
</svg>
