<svg preserveAspectRatio="none" width="100%" height="100%" overflow="visible" style="display: block;" viewBox="0 0 24.7928 23.312" fill="none" xmlns="http://www.w3.org/2000/svg">
<g id="Group 1272629122">
<path id="Vector" d="M11.5962 10.617C11.687 11.0198 12.2611 11.0198 12.3518 10.617C12.6723 9.19451 13.7831 8.08356 15.2056 7.76312C15.6085 7.67237 15.6085 7.09831 15.2056 7.00756C13.7831 6.68712 12.6723 5.57627 12.3518 4.15372C12.2611 3.75084 11.687 3.75084 11.5962 4.15372C11.2758 5.57627 10.1649 6.68712 8.74238 7.00756C8.33952 7.09831 8.33952 7.67237 8.74238 7.76312C10.1649 8.08356 11.2758 9.19441 11.5962 10.617Z" fill="var(--fill-0, #403050)"/>
<path id="Vector_2" d="M5.43327 7.71198C5.48506 7.94186 5.81263 7.94186 5.86441 7.71198C6.04726 6.90031 6.68115 6.26639 7.49284 6.08354C7.72272 6.03176 7.72272 5.70419 7.49284 5.65241C6.68115 5.46956 6.04726 4.8357 5.86441 4.02397C5.81263 3.79409 5.48506 3.79409 5.43327 4.02397C5.25043 4.8357 4.61654 5.46956 3.80483 5.65241C3.57495 5.70419 3.57495 6.03176 3.80483 6.08354C4.61654 6.26639 5.25043 6.90025 5.43327 7.71198Z" fill="var(--fill-0, #403050)"/>
<path id="Vector_3" d="M15.4907 1.0625C16.9848 1.0625 18.196 2.26996 18.196 3.75943V10.9513C18.196 12.4407 16.9848 13.6482 15.4907 13.6482L4.97028 13.6482L1.0625 17.2441L1.0625 3.75943C1.0625 2.26996 2.2737 1.0625 3.76778 1.0625L15.4907 1.0625Z" stroke="var(--stroke-0, #403050)" stroke-width="2.125" stroke-linecap="round" stroke-linejoin="round"/>
<path id="Vector_4" d="M18.218 7.396H21.025C22.5191 7.396 23.7303 8.60345 23.7303 10.0929V22.2495L19.8225 18.6535H11.0729C9.57886 18.6535 8.36767 17.4461 8.36767 15.9566V14.5743" stroke="var(--stroke-0, #403050)" stroke-width="2.125" stroke-linecap="round" stroke-linejoin="round"/>
</g>
</svg>
