<svg preserveAspectRatio="none" width="100%" height="100%" overflow="visible" style="display: block;" viewBox="0 0 22.8969 22.0635" fill="none" xmlns="http://www.w3.org/2000/svg">
<g id="Group 1272629122">
<path id="Vector" d="M7.59132 21.3367C7.80961 22.3057 9.19046 22.3057 9.40874 21.3367C10.1795 17.9152 12.8516 15.2429 16.2732 14.4722C17.2423 14.2539 17.2423 12.8731 16.2732 12.6548C12.8516 11.884 10.1795 9.21202 9.40874 5.79026C9.19046 4.82121 7.80961 4.82121 7.59132 5.79026C6.82054 9.21202 4.14847 11.884 0.726768 12.6548C-0.242256 12.8731 -0.242256 14.2539 0.726768 14.4722C4.14847 15.2429 6.82054 17.9149 7.59132 21.3367Z" fill="var(--fill-0, #403050)"/>
<path id="Vector_2" d="M18.1925 8.13661C18.3017 8.62113 18.9921 8.62113 19.1012 8.13661C19.4866 6.42585 20.8227 5.08973 22.5335 4.70434C23.018 4.59521 23.018 3.90479 22.5335 3.79566C20.8227 3.41027 19.4866 2.07427 19.1012 0.363393C18.9921 -0.121131 18.3017 -0.121131 18.1925 0.363393C17.8071 2.07427 16.4711 3.41027 14.7603 3.79566C14.2757 3.9048 14.2757 4.5952 14.7603 4.70434C16.4711 5.08973 17.8071 6.42573 18.1925 8.13661Z" fill="var(--fill-0, #403050)"/>
</g>
</svg>
