<svg preserveAspectRatio="none" width="100%" height="100%" overflow="visible" style="display: block;" viewBox="0 0 24.65 24.4375" fill="none" xmlns="http://www.w3.org/2000/svg">
<g id="Frame 1272629762">
<path id="Vector" d="M17.3705 23.6952C17.5322 24.4131 18.555 24.4131 18.7167 23.6952C19.2877 21.1608 21.267 19.1814 23.8015 18.6104C24.5193 18.4487 24.5193 17.4259 23.8015 17.2642C21.267 16.6933 19.2877 14.714 18.7167 12.1794C18.555 11.4616 17.5322 11.4616 17.3705 12.1794C16.7995 14.714 14.8202 16.6933 12.2856 17.2642C11.5678 17.4259 11.5678 18.4487 12.2856 18.6104C14.8202 19.1814 16.7995 21.1606 17.3705 23.6952Z" fill="var(--fill-0, #403050)"/>
<path id="Vector_2" d="M10.7804 13.8896C10.8612 14.2485 11.3726 14.2485 11.4535 13.8896C11.7389 12.6224 12.7286 11.6327 13.9959 11.3472C14.3548 11.2664 14.3548 10.7549 13.9959 10.6741C12.7286 10.3886 11.7389 9.399 11.4535 8.13168C11.3726 7.77277 10.8612 7.77277 10.7804 8.13168C10.4949 9.399 9.50522 10.3886 8.23792 10.6741C7.87903 10.7549 7.87903 11.2664 8.23792 11.3472C9.50522 11.6327 10.4949 12.6223 10.7804 13.8896Z" fill="var(--fill-0, #403050)"/>
<path id="Line 48" d="M4.14375 1.0625L1.16875 1.0625" stroke="var(--stroke-0, #403050)" stroke-width="2.125" stroke-linecap="round"/>
<path id="Line 65" d="M23.4812 1.0625L20.5062 1.0625" stroke="var(--stroke-0, #403050)" stroke-width="2.125" stroke-linecap="round"/>
<path id="Line 64" d="M16.6812 1.0625L14.1312 1.0625" stroke="var(--stroke-0, #403050)" stroke-width="2.125" stroke-linecap="round"/>
<path id="Line 63" d="M10.3062 1.0625L7.75625 1.0625" stroke="var(--stroke-0, #403050)" stroke-width="2.125" stroke-linecap="round"/>
<path id="Line 70" d="M4.14375 23.375H1.16875" stroke="var(--stroke-0, #403050)" stroke-width="2.125" stroke-linecap="round"/>
<path id="Line 73" d="M10.0938 23.375L7.54375 23.375" stroke="var(--stroke-0, #403050)" stroke-width="2.125" stroke-linecap="round"/>
<path id="Line 66" d="M1.0625 4.14375L1.0625 1.16875" stroke="var(--stroke-0, #403050)" stroke-width="2.125" stroke-linecap="round"/>
<path id="Line 67" d="M1.0625 23.2687L1.0625 20.2937" stroke="var(--stroke-0, #403050)" stroke-width="2.125" stroke-linecap="round"/>
<path id="Line 68" d="M1.0625 16.6812L1.0625 14.1312" stroke="var(--stroke-0, #403050)" stroke-width="2.125" stroke-linecap="round"/>
<path id="Line 69" d="M1.0625 10.3062L1.0625 7.75625" stroke="var(--stroke-0, #403050)" stroke-width="2.125" stroke-linecap="round"/>
<path id="Line 74" d="M23.5875 4.14375L23.5875 1.16875" stroke="var(--stroke-0, #403050)" stroke-width="2.125" stroke-linecap="round"/>
<path id="Line 77" d="M23.5875 10.3062L23.5875 7.75625" stroke="var(--stroke-0, #403050)" stroke-width="2.125" stroke-linecap="round"/>
</g>
</svg>
