<svg preserveAspectRatio="none" width="100%" height="100%" overflow="visible" style="display: block;" viewBox="0 0 24.7311 23.5311" fill="none" xmlns="http://www.w3.org/2000/svg">
<g id="Group 1272629116">
<g id="Vector">
<path d="M8.4069 5.8575C8.48547 6.2063 8.9825 6.2063 9.06107 5.8575C9.33851 4.62593 10.3003 3.66407 11.5319 3.38663C11.8807 3.30806 11.8807 2.81104 11.5319 2.73247C10.3003 2.45503 9.33851 1.49325 9.06107 0.261605C8.9825 -0.0872016 8.48547 -0.0872016 8.4069 0.261605C8.12946 1.49325 7.16765 2.45503 5.93601 2.73247C5.58722 2.81104 5.58722 3.30806 5.93601 3.38663C7.16765 3.66407 8.12946 4.62585 8.4069 5.8575Z" fill="var(--fill-0, #403050)"/>
<path d="M18.1055 11.8311C18.2365 12.4125 19.0648 12.4125 19.1958 11.8311C19.6582 9.77852 21.2612 8.17542 23.3139 7.71302C23.8952 7.58207 23.8952 6.7537 23.3139 6.62275C21.2612 6.16035 19.6582 4.55739 19.1958 2.50464C19.0648 1.9233 18.2365 1.9233 18.1055 2.50464C17.6431 4.55739 16.0401 6.16035 13.9874 6.62275C13.406 6.7537 13.406 7.58207 13.9874 7.71302C16.0401 8.17542 17.6431 9.77838 18.1055 11.8311Z" fill="var(--fill-0, #403050)"/>
</g>
<g id="Vector_2">
<path d="M23.6686 17.3686L6.1957 17.3686Z" fill="var(--fill-0, #403050)"/>
<path d="M6.1957 22.4686L19.8909 22.4686Z" fill="var(--fill-0, #403050)"/>
<path d="M11.7571 12.2686L6.1957 12.2686Z" fill="var(--fill-0, #403050)"/>
<path d="M23.6686 17.3686L6.1957 17.3686M6.1957 22.4686L19.8909 22.4686M11.7571 12.2686L6.1957 12.2686" stroke="var(--stroke-0, #403050)" stroke-width="2.125" stroke-linecap="round" stroke-linejoin="round"/>
</g>
<g id="Vector_3">
<path d="M2.19583 17.3254L1.0625 17.3254Z" fill="var(--fill-0, #403050)"/>
<path d="M1.0625 22.4254L2.19583 22.4254Z" fill="var(--fill-0, #403050)"/>
<path d="M2.19583 12.2254L1.0625 12.2254Z" fill="var(--fill-0, #403050)"/>
<path d="M2.19583 17.3254L1.0625 17.3254M1.0625 22.4254L2.19583 22.4254M2.19583 12.2254L1.0625 12.2254" stroke="var(--stroke-0, #403050)" stroke-width="2.125" stroke-linecap="round" stroke-linejoin="round"/>
</g>
</g>
</svg>
