<svg preserveAspectRatio="none" width="100%" height="100%" overflow="visible" style="display: block;" viewBox="0 0 24.7917 24.7917" fill="none" xmlns="http://www.w3.org/2000/svg">
<g id="Group 1272628218">
<path id="Vector" d="M1.0625 6.72917L1.0625 3.89583C1.0625 3.14439 1.36101 2.42372 1.89236 1.89236C2.42372 1.36101 3.14439 1.0625 3.89583 1.0625L6.72917 1.0625M1.0625 18.0625L1.0625 20.8958C1.0625 21.6473 1.36101 22.3679 1.89236 22.8993C2.42372 23.4307 3.14439 23.7292 3.89583 23.7292H6.72917M18.0625 1.0625L20.8958 1.0625C21.6473 1.0625 22.3679 1.36101 22.8993 1.89236C23.4307 2.42372 23.7292 3.14439 23.7292 3.89583V6.72917" stroke="var(--stroke-0, #403050)" stroke-width="2.125" stroke-linecap="round" stroke-linejoin="round"/>
<path id="Vector_2" d="M16.7593 23.1923C16.921 23.9101 17.9439 23.9101 18.1056 23.1923C18.6765 20.6579 20.6558 18.6784 23.1904 18.1075C23.9082 17.9458 23.9082 16.923 23.1904 16.7613C20.6558 16.1903 18.6765 14.2111 18.1056 11.6764C17.9439 10.9586 16.921 10.9586 16.7593 11.6764C16.1884 14.2111 14.2091 16.1903 11.6745 16.7613C10.9567 16.923 10.9567 17.9458 11.6745 18.1075C14.2091 18.6784 16.1884 20.6577 16.7593 23.1923Z" fill="var(--fill-0, #403050)"/>
<path id="Vector_3" d="M10.1725 13.3867C10.2534 13.7456 10.7648 13.7456 10.8457 13.3867C11.1311 12.1195 12.1208 11.1297 13.3881 10.8443C13.747 10.7634 13.747 10.252 13.3881 10.1712C12.1208 9.88569 11.1311 8.89607 10.8457 7.62875C10.7648 7.26984 10.2534 7.26984 10.1725 7.62875C9.88706 8.89607 8.8974 9.88569 7.6301 10.1712C7.27121 10.252 7.27121 10.7634 7.6301 10.8443C8.8974 11.1297 9.88706 12.1194 10.1725 13.3867Z" fill="var(--fill-0, #403050)"/>
</g>
</svg>
