<svg preserveAspectRatio="none" width="100%" height="100%" overflow="visible" style="display: block;" viewBox="0 0 30 30" fill="none" xmlns="http://www.w3.org/2000/svg">
<g id="tabler-icon-card">
<path id="Vector" d="M8 13.2857H22M11.3333 17.5714H11.3417M14.6667 17.5714H16.3333M8 11.5714C8 10.8894 8.26339 10.2354 8.73223 9.75315C9.20107 9.27092 9.83696 9 10.5 9H19.5C20.163 9 20.7989 9.27092 21.2678 9.75315C21.7366 10.2354 22 10.8894 22 11.5714V18.4286C22 19.1106 21.7366 19.7646 21.2678 20.2468C20.7989 20.7291 20.163 21 19.5 21H10.5C9.83696 21 9.20107 20.7291 8.73223 20.2468C8.26339 19.7646 8 19.1106 8 18.4286V11.5714Z" stroke="var(--stroke-0, #292929)" stroke-width="1.5" stroke-linecap="round" stroke-linejoin="round"/>
</g>
</svg>
