<svg preserveAspectRatio="none" width="100%" height="100%" overflow="visible" style="display: block;" viewBox="0 0 30 30" fill="none" xmlns="http://www.w3.org/2000/svg">
<g id="tabler-icon-settings">
<g id="Vector">
<path d="M13.6972 9.02433C14.0286 7.65856 15.9714 7.65856 16.3028 9.02433C16.3525 9.22951 16.4499 9.42005 16.5872 9.58044C16.7245 9.74084 16.8977 9.86655 17.0927 9.94736C17.2878 10.0282 17.4991 10.0618 17.7096 10.0455C17.9201 10.0291 18.1237 9.96335 18.304 9.85344C19.5041 9.12233 20.8784 10.4959 20.1473 11.6968C20.0376 11.877 19.9719 12.0805 19.9556 12.2908C19.9393 12.5012 19.9729 12.7124 20.0536 12.9073C20.1343 13.1022 20.2599 13.2753 20.4201 13.4126C20.5803 13.5499 20.7707 13.6474 20.9757 13.6972C22.3414 14.0286 22.3414 15.9714 20.9757 16.3028C20.7705 16.3525 20.5799 16.4499 20.4196 16.5872C20.2592 16.7245 20.1334 16.8977 20.0526 17.0927C19.9718 17.2878 19.9382 17.4991 19.9545 17.7096C19.9709 17.9201 20.0367 18.1237 20.1466 18.304C20.8777 19.5041 19.5041 20.8784 18.3032 20.1473C18.123 20.0376 17.9195 19.9719 17.7092 19.9556C17.4988 19.9393 17.2876 19.9729 17.0927 20.0536C16.8978 20.1343 16.7247 20.2599 16.5874 20.4201C16.4501 20.5803 16.3526 20.7707 16.3028 20.9757C15.9714 22.3414 14.0286 22.3414 13.6972 20.9757C13.6475 20.7705 13.5501 20.5799 13.4128 20.4196C13.2755 20.2592 13.1023 20.1334 12.9073 20.0526C12.7122 19.9718 12.5009 19.9382 12.2904 19.9545C12.0799 19.9709 11.8763 20.0367 11.696 20.1466C10.4959 20.8777 9.12156 19.5041 9.85267 18.3032C9.96241 18.123 10.0281 17.9195 10.0444 17.7092C10.0607 17.4988 10.0271 17.2876 9.94637 17.0927C9.86566 16.8978 9.74009 16.7247 9.57988 16.5874C9.41967 16.4501 9.22933 16.3526 9.02433 16.3028C7.65856 15.9714 7.65856 14.0286 9.02433 13.6972C9.22951 13.6475 9.42005 13.5501 9.58044 13.4128C9.74084 13.2755 9.86655 13.1023 9.94736 12.9073C10.0282 12.7122 10.0618 12.5009 10.0455 12.2904C10.0291 12.0799 9.96335 11.8763 9.85344 11.696C9.12233 10.4959 10.4959 9.12156 11.6968 9.85267C12.4746 10.3256 13.4826 9.90711 13.6972 9.02433Z" stroke="var(--stroke-0, #292929)" stroke-width="1.5" stroke-linecap="round" stroke-linejoin="round"/>
<path d="M12.6667 15C12.6667 15.6188 12.9125 16.2123 13.3501 16.6499C13.7877 17.0875 14.3812 17.3333 15 17.3333C15.6188 17.3333 16.2123 17.0875 16.6499 16.6499C17.0875 16.2123 17.3333 15.6188 17.3333 15C17.3333 14.3812 17.0875 13.7877 16.6499 13.3501C16.2123 12.9125 15.6188 12.6667 15 12.6667C14.3812 12.6667 13.7877 12.9125 13.3501 13.3501C12.9125 13.7877 12.6667 14.3812 12.6667 15Z" stroke="var(--stroke-0, #292929)" stroke-width="1.5" stroke-linecap="round" stroke-linejoin="round"/>
</g>
</g>
</svg>
