<svg preserveAspectRatio="none" width="100%" height="100%" overflow="visible" style="display: block;" viewBox="0 0 30 30" fill="none" xmlns="http://www.w3.org/2000/svg">
<g id="icon-changelog">
<path id="Vector" d="M21.2514 15.0258C21.3314 13.6824 21.0008 12.3464 20.3035 11.1954C19.6062 10.0444 18.5751 9.13274 17.3474 8.5816C16.1196 8.03047 14.7533 7.86592 13.4298 8.10982C12.1063 8.35371 10.8883 8.9945 9.93763 9.94707C8.98698 10.8996 8.34864 12.1189 8.10741 13.4429C7.86618 14.7669 8.03348 16.1329 8.58709 17.3596C9.14069 18.5862 10.0544 19.6154 11.2068 20.3104C12.3593 21.0054 13.6959 21.3333 15.0391 21.2506M14.6316 10.9474V14.6316L16.8421 16.8421M19.7895 17.5789V22M19.7895 22L22 19.7895M19.7895 22L17.5789 19.7895" stroke="var(--stroke-0, #292929)" stroke-width="1.5" stroke-linecap="round" stroke-linejoin="round"/>
</g>
</svg>
