<svg preserveAspectRatio="none" width="100%" height="100%" overflow="visible" style="display: block;" viewBox="0 0 30 30" fill="none" xmlns="http://www.w3.org/2000/svg">
<g id="tabler-icon-mail">
<path id="Vector" d="M8 21.9997V20.4442C8 19.6191 8.32778 18.8278 8.91122 18.2443C9.49467 17.6609 10.286 17.3331 11.1111 17.3331H14.2222C15.0473 17.3331 15.8387 17.6609 16.4221 18.2443C17.0056 18.8278 17.3333 19.6191 17.3333 20.4442V21.9997M18.1111 8.10102C18.7803 8.27236 19.3735 8.66155 19.7971 9.20724C20.2206 9.75292 20.4505 10.4241 20.4505 11.1148C20.4505 11.8056 20.2206 12.4768 19.7971 13.0224C19.3735 13.5681 18.7803 13.9573 18.1111 14.1287M22 22V20.4445C21.9961 19.7578 21.765 19.0918 21.343 18.5502C20.9209 18.0085 20.3315 17.6217 19.6667 17.4501M9.55556 11.111C9.55556 11.9361 9.88333 12.7274 10.4668 13.3109C11.0502 13.8943 11.8415 14.2221 12.6667 14.2221C13.4918 14.2221 14.2831 13.8943 14.8666 13.3109C15.45 12.7274 15.7778 11.9361 15.7778 11.111C15.7778 10.2859 15.45 9.49464 14.8666 8.9112C14.2831 8.32777 13.4918 8 12.6667 8C11.8415 8 11.0502 8.32777 10.4668 8.9112C9.88333 9.49464 9.55556 10.2859 9.55556 11.111Z" stroke="var(--stroke-0, #292929)" stroke-width="1.5" stroke-linecap="round" stroke-linejoin="round"/>
</g>
</svg>
