<svg preserveAspectRatio="none" width="100%" height="100%" overflow="visible" style="display: block;" viewBox="0 0 30 30" fill="none" xmlns="http://www.w3.org/2000/svg">
<g id="tabler-icon-flask">
<path id="Vector" d="M12.1048 8.00081H18.1433M13.1112 13.0329H17.1369M13.1112 13.0329L13.1122 8.00081M13.1112 13.0329L8.07364 21.11C8.02508 21.2076 7.99987 21.3153 8 21.4244C8.00013 21.5335 8.02559 21.641 8.07438 21.7386C8.12316 21.8362 8.19394 21.9211 8.28114 21.9866C8.36834 22.0522 8.46957 22.0966 8.57685 22.1164H21.6732C21.7804 22.0966 21.8817 22.0522 21.9689 21.9866C22.0561 21.9211 22.1268 21.8362 22.1756 21.7386C22.2244 21.641 22.2499 21.5335 22.25 21.4244C22.2501 21.3153 22.2249 21.2076 22.1764 21.11L17.1369 13.0329M17.1369 13.0329L17.1378 8.00081" stroke="var(--stroke-0, #292929)" stroke-width="1.5" stroke-linecap="round" stroke-linejoin="round"/>
<path id="Vector_2" d="M10.2148 18.3086H20.2148" stroke="var(--stroke-0, #292929)" stroke-width="1.5" stroke-linecap="round" stroke-linejoin="round"/>
</g>
</svg>
