<svg preserveAspectRatio="none" width="100%" height="100%" overflow="visible" style="display: block;" viewBox="0 0 30 30" fill="none" xmlns="http://www.w3.org/2000/svg">
<g id="tabler-icon-mail">
<path id="Vector" d="M8 10.7143C8 10.2596 8.16389 9.82359 8.45561 9.5021C8.74733 9.18061 9.143 9 9.55556 9H20.4444C20.857 9 21.2527 9.18061 21.5444 9.5021C21.8361 9.82359 22 10.2596 22 10.7143M8 10.7143V19.2857C8 19.7404 8.16389 20.1764 8.45561 20.4979C8.74733 20.8194 9.143 21 9.55556 21H20.4444C20.857 21 21.2527 20.8194 21.5444 20.4979C21.8361 20.1764 22 19.7404 22 19.2857V10.7143M8 10.7143L15 15.8571L22 10.7143" stroke="var(--stroke-0, #292929)" stroke-width="1.5" stroke-linecap="round" stroke-linejoin="round"/>
</g>
</svg>
