<svg preserveAspectRatio="none" width="100%" height="100%" overflow="visible" style="display: block;" viewBox="0 0 24 24" fill="none" xmlns="http://www.w3.org/2000/svg">
<g id="tabler-icon-credit-card">
<path id="Vector" d="M5 10.2857H19M8.33333 14.5714H8.34167M11.6667 14.5714H13.3333M5 8.57143C5 7.88944 5.26339 7.23539 5.73223 6.75315C6.20107 6.27092 6.83696 6 7.5 6H16.5C17.163 6 17.7989 6.27092 18.2678 6.75315C18.7366 7.23539 19 7.88944 19 8.57143V15.4286C19 16.1106 18.7366 16.7646 18.2678 17.2468C17.7989 17.7291 17.163 18 16.5 18H7.5C6.83696 18 6.20107 17.7291 5.73223 17.2468C5.26339 16.7646 5 16.1106 5 15.4286V8.57143Z" stroke="var(--stroke-0, #292929)" stroke-width="1.5" stroke-linecap="round" stroke-linejoin="round"/>
</g>
</svg>
