<svg preserveAspectRatio="none" width="100%" height="100%" overflow="visible" style="display: block;" viewBox="0 0 30 30" fill="none" xmlns="http://www.w3.org/2000/svg">
<g id="tabler-icon-sun-filled">
<path id="Vector" d="M15.1176 9.55556V8M18.9412 11.1108L20.0118 10.0219M20.4706 15H22M18.9412 18.8889L20.0118 19.9778M15.1176 20.4444V22M11.2938 18.8889L10.2232 19.9778M10.5294 15H9M11.2938 11.1108L10.2232 10.0219M12.8235 15C12.8235 15.6188 13.0652 16.2123 13.4955 16.6499C13.9257 17.0875 14.5092 17.3333 15.1176 17.3333C15.7261 17.3333 16.3096 17.0875 16.7398 16.6499C17.1701 16.2123 17.4118 15.6188 17.4118 15C17.4118 14.3812 17.1701 13.7877 16.7398 13.3501C16.3096 12.9125 15.7261 12.6667 15.1176 12.6667C14.5092 12.6667 13.9257 12.9125 13.4955 13.3501C13.0652 13.7877 12.8235 14.3812 12.8235 15Z" stroke="var(--stroke-0, #292929)" stroke-width="1.5" stroke-linecap="round" stroke-linejoin="round"/>
</g>
</svg>
