<svg preserveAspectRatio="none" width="100%" height="100%" overflow="visible" style="display: block;" viewBox="0 0 55.0581 52.749" fill="none" xmlns="http://www.w3.org/2000/svg">
<g id="Group 1272629116">
<g id="Vector">
<path d="M18.5902 13.231C18.7676 14.0189 19.8904 14.0189 20.0678 13.231C20.6945 10.4492 22.8671 8.27649 25.6491 7.6498C26.4369 7.47233 26.4369 6.34964 25.6491 6.17217C22.8671 5.54548 20.6945 3.373 20.0678 0.590919C19.8904 -0.196973 18.7676 -0.196973 18.5902 0.590919C17.9635 3.373 15.7909 5.54548 13.0089 6.17217C12.221 6.34964 12.221 7.47232 13.0089 7.6498C15.7909 8.27649 17.9635 10.449 18.5902 13.231Z" fill="var(--fill-0, white)"/>
<path d="M40.4976 26.7244C40.7934 28.0376 42.6646 28.0376 42.9604 26.7244C44.0049 22.0879 47.6258 18.4668 52.2624 17.4223C53.5756 17.1266 53.5756 15.2554 52.2624 14.9596C47.6258 13.9151 44.0049 10.2943 42.9604 5.65754C42.6646 4.34439 40.7934 4.34439 40.4976 5.65754C39.4531 10.2943 35.8322 13.9151 31.1955 14.9596C29.8823 15.2554 29.8823 17.1266 31.1955 17.4223C35.8322 18.4668 39.4531 22.0876 40.4976 26.7244Z" fill="var(--fill-0, white)"/>
</g>
<g id="Vector_2">
<path d="M53.0581 39.229L13.5898 39.229Z" fill="var(--fill-0, white)"/>
<path d="M13.5898 50.749L44.5248 50.749Z" fill="var(--fill-0, white)"/>
<path d="M26.1521 27.709L13.5898 27.709Z" fill="var(--fill-0, white)"/>
<path d="M53.0581 39.229L13.5898 39.229M13.5898 50.749L44.5248 50.749M26.1521 27.709L13.5898 27.709" stroke="var(--stroke-0, white)" stroke-width="4" stroke-linecap="round" stroke-linejoin="round"/>
</g>
<g id="Vector_3">
<path d="M4.56 39.1343L2 39.1343Z" fill="var(--fill-0, white)"/>
<path d="M2 50.6543L4.56 50.6543Z" fill="var(--fill-0, white)"/>
<path d="M4.56 27.6143L2 27.6143Z" fill="var(--fill-0, white)"/>
<path d="M4.56 39.1343L2 39.1343M2 50.6543L4.56 50.6543M4.56 27.6143L2 27.6143" stroke="var(--stroke-0, white)" stroke-width="4" stroke-linecap="round" stroke-linejoin="round"/>
</g>
</g>
</svg>
